<?xml version="1.0" standalone="no"?>
<!DOCTYPE svg PUBLIC "-//W3C//DTD SVG 20010904//EN"
 "http://www.w3.org/TR/2001/REC-SVG-20010904/DTD/svg10.dtd">
<svg version="1.0" xmlns="http://www.w3.org/2000/svg"
 width="512.000000pt" height="512.000000pt" viewBox="0 0 512.000000 512.000000"
 preserveAspectRatio="xMidYMid meet">
<metadata>
Created by potrace 1.11, written by Peter Selinger 2001-2013
</metadata>
<g transform="translate(0.000000,512.000000) scale(0.100000,-0.100000)"
fill="#000000" stroke="none">
<path d="M1840 4957 c0 -7 -27 -39 -60 -72 l-60 -59 -38 37 c-54 53 -75 46
-22 -8 l44 -45 -62 -62 -62 -63 -60 60 c-33 33 -58 65 -56 71 11 28 -36 -2
-95 -62 -67 -67 -79 -73 -99 -49 -7 9 -15 13 -18 10 -3 -3 3 -14 13 -25 18
-20 18 -22 -40 -80 -33 -33 -64 -60 -70 -60 -6 0 -24 13 -40 30 -15 16 -32 27
-37 23 -6 -3 6 -22 26 -42 l36 -37 -58 -57 c-32 -31 -62 -57 -67 -57 -5 0 -26
17 -47 37 -49 48 -63 34 -15 -15 20 -21 37 -42 37 -48 0 -12 -102 -114 -115
-114 -5 0 -28 19 -52 42 -56 55 -70 41 -15 -15 23 -24 42 -47 42 -52 0 -5 -26
-35 -57 -67 l-57 -58 -47 46 c-26 25 -49 42 -52 37 -4 -6 12 -27 33 -48 22
-22 40 -44 40 -50 0 -6 -27 -37 -60 -70 l-60 -59 -40 39 c-22 21 -40 34 -40
29 0 -6 14 -23 30 -39 17 -16 30 -34 30 -40 0 -6 -27 -37 -60 -70 l-60 -59
-23 22 c-31 29 -44 15 -15 -16 l23 -24 -72 -68 c-75 -72 -114 -123 -74 -98 19
12 27 7 83 -50 l63 -62 -62 -62 -63 -63 -50 50 c-27 27 -50 43 -50 35 0 -8 19
-34 42 -57 l42 -43 -62 -63 c-34 -34 -62 -69 -62 -77 0 -8 28 -43 62 -77 l62
-63 -62 -63 c-34 -34 -62 -69 -62 -77 0 -8 28 -42 62 -77 l61 -62 -61 -66
c-34 -36 -62 -72 -62 -80 0 -8 28 -44 62 -80 l61 -66 -61 -62 c-34 -35 -62
-69 -62 -77 0 -8 28 -43 62 -77 l62 -63 -62 -63 c-34 -34 -62 -69 -62 -77 0
-8 28 -43 62 -77 l62 -63 -62 -63 c-34 -34 -62 -69 -62 -77 0 -8 28 -43 62
-77 l62 -63 -42 -43 c-23 -23 -42 -49 -42 -57 0 -8 23 8 50 35 l50 50 62 -63
63 -62 -65 -65 c-53 -53 -66 -62 -79 -52 -38 32 16 -43 77 -105 63 -64 65 -68
49 -86 -25 -28 -21 -39 6 -14 l23 22 64 -65 64 -65 -32 -33 c-42 -44 -28 -57
15 -15 l33 32 62 -62 62 -62 -39 -40 c-51 -52 -37 -66 15 -15 l40 39 50 -49
c60 -59 64 -88 20 -130 -16 -15 -27 -32 -24 -37 4 -5 17 0 29 12 l23 22 -5
-39 c-4 -36 -2 -40 54 -89 642 -557 1491 -761 2314 -554 387 97 738 281 1047
548 57 50 62 58 62 95 0 40 0 40 20 22 34 -31 36 -7 2 28 -18 18 -32 40 -32
48 0 8 25 39 55 69 l55 54 38 -37 c50 -49 64 -35 15 15 l-37 38 62 62 61 62
31 -29 c39 -37 52 -24 15 15 l-29 30 64 65 c60 61 65 64 82 48 20 -18 25 -4 6
15 -10 10 0 25 44 70 88 90 88 86 10 165 l-67 67 63 62 62 62 45 -44 c54 -53
61 -32 8 23 l-38 38 68 66 c37 36 67 68 67 71 0 4 -30 37 -67 74 l-67 68 67
68 c37 37 67 70 67 74 0 3 -30 35 -67 72 l-68 65 68 68 c37 38 67 71 67 75 0
3 -29 35 -65 69 -36 34 -64 66 -63 70 2 4 31 37 66 72 34 36 62 68 62 72 0 4
-27 35 -59 69 -33 33 -60 66 -60 71 0 6 27 38 60 71 32 34 59 66 59 70 0 5
-30 39 -67 77 l-68 68 68 65 c37 37 67 69 67 72 0 4 -30 37 -67 74 l-67 68 42
43 c55 56 41 70 -15 15 l-43 -42 -62 62 -63 62 55 56 c30 31 64 59 75 64 18 6
12 15 -54 84 -73 74 -74 76 -56 96 24 26 11 39 -15 15 -20 -18 -22 -18 -80 40
-33 33 -60 64 -60 70 0 7 11 22 25 35 14 13 25 28 25 34 0 5 -16 -5 -35 -24
l-35 -34 -60 59 c-33 33 -60 64 -60 69 0 6 17 27 37 48 51 52 33 61 -20 10
l-43 -42 -57 58 c-31 32 -57 62 -57 67 0 5 18 28 41 51 22 23 37 44 32 47 -6
4 -27 -12 -48 -33 -22 -22 -44 -40 -50 -40 -14 0 -115 102 -115 116 0 5 16 25
35 44 19 18 32 37 28 42 -3 6 -22 -6 -42 -26 -20 -20 -41 -36 -46 -36 -5 0
-35 26 -67 57 l-58 57 32 33 c38 40 29 58 -10 20 -16 -15 -32 -27 -38 -27 -5
0 -36 27 -69 60 -58 58 -58 60 -40 80 20 23 14 26 -15 8 -17 -11 -27 -4 -90
56 l-71 69 -70 -69 -69 -69 -62 63 -62 62 44 45 c53 54 32 61 -22 8 l-38 -37
-60 59 c-33 33 -58 65 -55 72 3 8 -5 13 -20 13 -14 0 -25 -6 -25 -13 0 -7 -27
-39 -60 -72 l-60 -59 -65 64 c-35 35 -62 67 -59 72 3 4 -6 8 -20 8 -16 0 -24
-5 -21 -13 3 -7 -22 -39 -55 -72 l-60 -59 -65 64 c-35 35 -62 67 -59 72 3 4
-6 8 -20 8 -16 0 -24 -5 -21 -13 3 -7 -22 -39 -55 -72 l-60 -59 -65 64 c-35
35 -62 67 -59 72 3 4 -7 8 -21 8 -14 0 -24 -4 -21 -8 3 -5 -24 -37 -59 -72
l-65 -64 -60 59 c-33 33 -58 65 -55 72 3 8 -5 13 -21 13 -14 0 -23 -4 -20 -8
3 -5 -24 -37 -59 -72 l-65 -64 -60 59 c-33 33 -60 65 -60 72 0 7 -9 13 -20 13
-11 0 -20 -6 -20 -13z m85 -87 l60 -60 -63 -63 -62 -62 -62 62 -63 63 60 60
c33 33 62 60 65 60 3 0 32 -27 65 -60z m280 0 l60 -60 -63 -63 -62 -62 -62 62
-63 63 60 60 c33 33 62 60 65 60 3 0 32 -27 65 -60z m290 0 l59 -60 -59 -60
c-33 -33 -64 -60 -70 -60 -6 0 -37 27 -70 60 l-59 60 59 60 c33 33 64 60 70
60 6 0 37 -27 70 -60z m280 0 l60 -60 -63 -62 -62 -63 -65 65 -65 64 57 58
c32 32 62 58 68 58 6 0 37 -27 70 -60z m280 0 l60 -60 -63 -63 -62 -62 -62 62
-63 63 60 60 c33 33 62 60 65 60 3 0 32 -27 65 -60z m280 0 l60 -60 -63 -63
-62 -62 -62 62 -63 63 60 60 c33 33 62 60 65 60 3 0 32 -27 65 -60z m-1830
-140 l59 -60 -59 -60 c-33 -33 -64 -60 -69 -60 -6 0 -36 26 -68 57 l-58 57 62
63 c34 35 65 63 68 63 3 0 32 -27 65 -60z m280 0 l60 -60 -63 -63 -62 -62 -62
62 -63 63 60 60 c33 33 62 60 65 60 3 0 32 -27 65 -60z m280 0 l60 -60 -63
-63 -62 -62 -62 62 -63 63 60 60 c33 33 62 60 65 60 3 0 32 -27 65 -60z m282
-2 l63 -62 -57 -58 c-32 -32 -62 -58 -68 -58 -6 0 -37 27 -70 60 l-59 60 59
60 c33 33 62 60 64 60 3 0 34 -28 68 -62z m288 2 l59 -60 -59 -60 c-33 -33
-64 -60 -70 -60 -6 0 -37 27 -70 60 l-59 60 59 60 c33 33 64 60 70 60 6 0 37
-27 70 -60z m280 0 l60 -60 -63 -63 -62 -62 -62 62 -63 63 60 60 c33 33 62 60
65 60 3 0 32 -27 65 -60z m280 0 l60 -60 -63 -63 -62 -62 -62 62 -63 63 60 60
c33 33 62 60 65 60 3 0 32 -27 65 -60z m280 0 l60 -60 -63 -63 -62 -62 -62 62
-63 63 60 60 c33 33 62 60 65 60 3 0 32 -27 65 -60z m290 0 l59 -60 -59 -60
c-33 -33 -64 -60 -70 -60 -6 0 -37 27 -70 60 l-59 60 59 60 c33 33 64 60 70
60 6 0 37 -27 70 -60z m-2400 -140 l59 -60 -64 -65 -64 -65 -63 62 -63 62 62
63 c34 35 65 63 68 63 3 0 32 -27 65 -60z m280 0 l59 -60 -59 -60 c-33 -33
-64 -60 -69 -60 -6 0 -36 26 -68 57 l-58 57 62 63 c34 35 65 63 68 63 3 0 32
-27 65 -60z m280 0 l60 -60 -63 -63 -62 -62 -62 62 -63 63 60 60 c33 33 62 60
65 60 3 0 32 -27 65 -60z m282 -2 l63 -62 -57 -58 c-32 -32 -62 -58 -68 -58
-6 0 -37 27 -70 60 l-59 60 59 60 c33 33 62 60 64 60 3 0 34 -28 68 -62z m280
0 l63 -62 -57 -58 c-32 -32 -62 -58 -68 -58 -6 0 -37 27 -70 60 l-59 60 59 60
c33 33 62 60 64 60 3 0 34 -28 68 -62z m288 2 l59 -60 -59 -60 c-33 -33 -64
-60 -69 -60 -6 0 -36 26 -68 57 l-58 57 62 63 c34 35 65 63 68 63 3 0 32 -27
65 -60z m280 0 l60 -60 -63 -63 -62 -62 -62 62 -63 63 60 60 c33 33 62 60 65
60 3 0 32 -27 65 -60z m280 0 l60 -60 -63 -63 -62 -62 -62 62 -63 63 60 60
c33 33 62 60 65 60 3 0 32 -27 65 -60z m282 -2 l63 -62 -57 -58 c-32 -32 -62
-58 -68 -58 -6 0 -37 27 -70 60 l-59 60 59 60 c33 33 62 60 64 60 3 0 34 -28
68 -62z m288 2 l60 -60 -65 -65 -65 -65 -65 65 -64 65 59 60 c33 33 64 60 70
60 6 0 37 -27 70 -60z m-2687 -267 l-62 -63 -63 62 -63 62 62 63 62 63 63 -62
63 -62 -62 -63z m287 127 l59 -60 -64 -65 -64 -65 -63 62 -63 62 62 63 c34 35
65 63 68 63 3 0 32 -27 65 -60z m280 0 l59 -60 -64 -65 -64 -65 -58 57 c-32
32 -58 62 -58 67 0 11 110 126 120 126 3 0 32 -27 65 -60z m277 3 c32 -32 58
-62 58 -68 0 -6 -26 -36 -58 -68 l-58 -57 -64 65 -64 65 59 60 c33 33 62 60
64 60 3 0 31 -26 63 -57z m285 -5 l63 -62 -57 -58 c-32 -32 -62 -58 -68 -58
-6 0 -37 27 -70 60 l-59 60 59 60 c33 33 62 60 64 60 3 0 34 -28 68 -62z m281
-125 l-62 -63 -63 62 -63 62 62 63 62 63 63 -62 63 -62 -62 -63z m287 127 l59
-60 -59 -60 c-33 -33 -64 -60 -69 -60 -14 0 -116 101 -116 114 0 11 110 126
120 126 3 0 32 -27 65 -60z m280 0 l60 -60 -63 -63 -62 -62 -62 62 -63 63 60
60 c33 33 62 60 65 60 3 0 32 -27 65 -60z m277 3 c32 -32 58 -62 58 -68 0 -6
-26 -36 -58 -68 l-58 -57 -64 65 -64 65 59 60 c33 33 62 60 64 60 3 0 31 -26
63 -57z m286 -6 l62 -63 -63 -62 -63 -62 -64 65 -64 65 59 60 c33 33 62 60 65
60 3 0 34 -28 68 -63z m287 3 l59 -60 -64 -65 -64 -65 -63 62 -63 62 62 63
c34 35 65 63 68 63 3 0 32 -27 65 -60z m-2967 -267 l-62 -63 -63 62 -63 62 62
63 62 63 63 -62 63 -62 -62 -63z m280 0 l-62 -63 -63 62 -63 62 62 63 62 63
63 -62 63 -62 -62 -63z m287 127 l59 -60 -64 -65 -64 -65 -63 62 -63 62 62 63
c34 35 65 63 68 63 3 0 32 -27 65 -60z m277 3 c32 -32 58 -62 58 -68 0 -6 -27
-37 -60 -70 l-60 -59 -60 59 c-33 33 -60 64 -60 69 0 10 110 126 119 126 3 0
31 -26 63 -57z m280 0 c32 -32 58 -62 58 -68 0 -6 -26 -36 -58 -68 l-58 -57
-64 65 -64 65 59 60 c33 33 62 60 64 60 3 0 31 -26 63 -57z m286 -130 l-62
-63 -63 62 -63 62 62 63 62 63 63 -62 63 -62 -62 -63z m280 0 l-62 -63 -63 62
-63 62 62 63 62 63 63 -62 63 -62 -62 -63z m287 127 l59 -60 -64 -65 -64 -65
-58 57 c-32 32 -58 62 -58 67 0 11 110 126 120 126 3 0 32 -27 65 -60z m277 3
c32 -32 58 -62 58 -68 0 -12 -118 -132 -122 -124 -2 2 -30 33 -63 67 l-59 62
59 60 c33 33 62 60 64 60 3 0 31 -26 63 -57z m286 -6 l62 -63 -63 -62 -63 -62
-64 65 -64 65 59 60 c33 33 62 60 65 60 3 0 34 -28 68 -63z m305 -99 c-24 -24
-32 -38 -22 -38 8 0 28 14 44 30 l29 30 35 -34 c63 -60 91 -64 34 -4 l-53 54
65 64 65 65 62 -63 63 -62 -65 -65 c-35 -35 -61 -68 -57 -72 4 -4 37 22 72 57
l65 65 62 -63 63 -62 -65 -65 -64 -65 -44 43 c-41 39 -43 40 -29 12 8 -17 24
-38 35 -49 20 -17 20 -20 5 -42 -17 -27 -8 -32 17 -9 14 13 23 8 80 -50 l65
-65 -62 -62 c-59 -59 -63 -61 -81 -45 -24 22 -37 9 -15 -15 15 -17 15 -20 -7
-43 -13 -14 -21 -27 -18 -30 2 -3 13 4 23 15 10 11 23 20 29 20 7 0 38 -27 71
-60 l60 -60 -63 -62 -62 -62 -45 44 c-58 57 -72 43 -15 -15 l44 -45 -59 -60
c-42 -42 -66 -59 -78 -56 -14 3 -17 0 -13 -11 4 -9 -6 -29 -24 -49 -44 -51
-37 -64 10 -19 l40 39 63 -62 62 -62 -63 -62 -62 -63 0 48 0 47 -57 0 c-314 2
-718 -1 -722 -5 -2 -3 -4 -213 -4 -468 l1 -462 -126 -127 -127 -128 -525 0
-525 0 -127 128 -126 127 1 468 c2 341 -1 467 -9 467 -6 0 -17 7 -25 16 -11
13 -4 24 49 77 l62 62 62 -62 c52 -52 60 -64 49 -77 -11 -13 -9 -15 17 -13 40
3 33 18 -45 98 -49 50 -62 70 -57 84 6 15 4 17 -11 11 -14 -5 -29 4 -59 32
-65 62 -88 60 -26 -3 l55 -55 -63 -63 -62 -62 -62 62 -63 63 58 58 c74 74 74
90 0 164 l-57 57 62 65 c34 35 62 70 62 78 0 7 -27 40 -60 73 -33 33 -60 64
-60 70 0 6 26 36 58 68 45 45 60 55 70 45 9 -9 12 -7 12 9 0 12 3 30 7 40 6
16 5 16 -11 4 -16 -13 -24 -8 -82 50 l-64 64 65 65 65 64 60 -59 c33 -33 60
-65 60 -72 0 -7 6 -13 13 -13 15 0 127 -111 127 -127 0 -6 -7 -16 -15 -23 -8
-7 -15 -19 -15 -28 0 -12 7 -9 28 11 l28 27 57 -58 c31 -32 57 -62 57 -68 0
-5 -18 -28 -40 -49 -22 -21 -40 -46 -40 -54 0 -9 19 4 48 32 26 26 52 47 57
47 13 0 115 -102 115 -115 0 -6 -27 -37 -60 -70 l-60 -59 -25 24 -25 23 17
-41 c10 -23 23 -42 28 -42 6 0 28 -17 49 -39 l38 -39 -52 -53 c-59 -62 -106
-150 -120 -228 -6 -31 -10 -254 -10 -532 l0 -479 520 0 520 0 0 470 0 470 -90
0 -89 0 -6 38 c-11 69 -26 117 -55 168 -29 51 -29 52 -9 70 19 17 20 16 49
-11 35 -34 42 -14 8 22 l-22 24 61 61 c53 53 64 60 78 48 20 -17 32 -5 15 15
-12 14 -5 24 45 75 33 33 66 59 75 57 8 -1 14 4 12 12 -4 19 108 131 131 131
11 0 15 5 11 11 -3 6 21 39 57 75 52 53 65 61 78 51 12 -10 14 -9 7 7 -5 15 7
33 56 83 l62 63 23 -22 c30 -28 44 -14 15 15 l-22 21 62 63 62 63 48 -47 c26
-26 51 -44 55 -40 4 4 -14 29 -40 55 l-47 47 62 62 62 63 63 -62 63 -62 -37
-38z m-2985 -165 l-63 -63 -65 66 -65 65 65 59 65 59 63 -62 62 -61 -62 -63z
m280 0 l-62 -63 -63 62 -63 62 62 63 62 63 63 -62 63 -62 -62 -63z m280 0
l-62 -63 -63 62 -63 62 62 63 62 63 63 -62 63 -62 -62 -63z m564 130 c32 -32
58 -62 58 -68 0 -6 -27 -37 -60 -70 l-60 -59 -60 59 c-33 33 -60 64 -60 69 0
10 110 126 119 126 3 0 31 -26 63 -57z m286 -130 l-62 -63 -63 62 -63 62 62
63 62 63 63 -62 63 -62 -62 -63z m280 0 l-62 -63 -63 62 -63 62 62 63 62 63
63 -62 63 -62 -62 -63z m280 0 l-62 -63 -63 62 -63 62 62 63 62 63 63 -62 63
-62 -62 -63z m284 130 c32 -32 58 -62 58 -68 0 -6 -27 -37 -60 -70 l-60 -59
-60 59 c-33 33 -60 64 -60 69 0 10 110 126 119 126 3 0 31 -26 63 -57z m286
-6 l62 -63 -65 -64 -65 -64 -60 59 c-33 33 -60 64 -60 69 0 11 110 126 120
126 3 0 34 -28 68 -63z m-2680 -140 l62 -63 -65 -64 -65 -64 -60 59 c-33 33
-60 64 -60 69 0 11 110 126 120 126 3 0 34 -28 68 -63z m280 -124 l-62 -63
-63 62 -63 62 62 63 62 63 63 -62 63 -62 -62 -63z m278 -3 l-65 -65 21 -30
c12 -16 41 -51 65 -76 29 -30 42 -51 38 -61 -5 -12 -2 -15 12 -12 12 3 36 -14
78 -55 l59 -61 -32 -33 c-42 -44 -28 -57 15 -15 l33 32 63 -62 62 -62 -62 -62
-63 -63 -50 50 c-27 27 -53 46 -57 42 -4 -4 15 -30 42 -57 l49 -50 -64 -65
-64 -65 -63 62 c-52 52 -60 64 -50 77 8 11 5 10 -9 -2 -21 -18 -21 -18 44 -81
57 -56 64 -66 53 -80 -11 -13 -35 -16 -122 -16 -112 0 -114 1 -110 42 1 11 -4
15 -16 12 -12 -3 -37 14 -78 56 l-60 61 68 65 c37 37 67 70 67 74 0 4 -30 37
-67 74 l-68 65 68 68 c37 38 67 73 67 79 0 5 -29 39 -65 74 l-65 64 62 63 c58
59 63 62 80 46 16 -15 18 -15 18 0 0 9 -5 19 -11 23 -7 4 14 31 52 70 l63 64
63 -62 63 -62 -64 -66z m286 -2 l-62 -63 -65 65 -65 64 62 63 63 63 65 -65 65
-65 -63 -62z m563 2 l-65 -65 -62 63 -63 62 65 65 64 65 63 -62 63 -63 -65
-65z m305 25 c-53 -54 -39 -68 15 -15 l41 40 62 -63 62 -63 -55 -54 c-30 -30
-55 -61 -55 -69 0 -9 28 12 63 47 l63 62 64 -65 65 -65 -63 -62 -62 -63 -55
55 c-67 66 -74 49 -9 -21 46 -48 46 -50 29 -69 -21 -23 -14 -26 15 -8 18 12
27 6 82 -49 58 -58 61 -64 46 -79 -15 -15 -21 -13 -75 29 -90 69 -157 91 -283
91 -92 0 -112 -3 -161 -26 l-57 -26 -43 44 -43 44 59 60 c33 33 64 60 70 60 6
0 28 -18 50 -40 21 -22 41 -37 44 -35 2 3 -15 25 -39 50 l-44 45 72 74 c40 41
72 80 72 87 0 7 -3 9 -7 5 -4 -3 -35 22 -70 56 l-63 62 62 63 62 63 63 -62 63
-62 -40 -41z m258 -22 l-62 -63 -63 62 -63 62 62 63 62 63 63 -62 63 -62 -62
-63z m284 -5 l-62 -63 -65 65 -65 64 62 63 63 63 65 -65 65 -65 -63 -62z m280
135 c32 -32 58 -62 58 -68 0 -6 -27 -37 -60 -70 l-60 -59 -60 59 c-33 33 -60
64 -60 69 0 10 110 126 119 126 3 0 31 -26 63 -57z m1130 0 c32 -32 58 -62 58
-68 0 -6 -27 -37 -60 -70 l-60 -59 -60 59 c-33 33 -60 64 -60 69 0 10 110 126
119 126 3 0 31 -26 63 -57z m-3810 -140 c32 -32 58 -62 58 -68 0 -6 -27 -37
-60 -70 l-60 -59 -60 59 c-33 33 -60 64 -60 69 0 10 110 126 119 126 3 0 31
-26 63 -57z m283 -133 l-65 -65 -62 63 -63 62 65 65 64 65 63 -62 63 -63 -65
-65z m567 -2 l-62 -63 -65 65 -65 64 62 63 63 63 65 -65 65 -65 -63 -62z m843
2 l-65 -65 -62 63 -63 62 65 65 64 65 63 -62 63 -63 -65 -65z m567 -2 l-62
-63 -65 65 -65 64 62 63 63 63 65 -65 65 -65 -63 -62z m281 0 l-63 -63 -60 60
c-33 33 -60 64 -60 69 0 6 26 36 57 68 l58 58 65 -65 65 -65 -62 -62z m1409
135 c32 -32 58 -62 58 -68 0 -6 -27 -37 -60 -70 l-60 -59 -60 59 c-33 33 -60
64 -60 69 0 10 110 126 119 126 3 0 31 -26 63 -57z m-4089 -275 l-63 -63 -60
60 c-33 33 -60 64 -60 69 0 6 26 36 57 68 l58 58 65 -65 65 -65 -62 -62z m337
67 c0 -6 -27 -37 -60 -70 l-60 -60 -62 63 -63 62 65 65 64 65 58 -57 c32 -32
58 -62 58 -68z m225 -65 l-65 -65 -62 63 -63 62 65 65 64 65 63 -62 63 -63
-65 -65z m1978 -2 l-63 -63 -60 60 c-33 33 -60 64 -60 69 0 6 26 36 57 68 l58
58 65 -65 65 -65 -62 -62z m1410 0 l-63 -63 -60 60 c-33 33 -60 64 -60 69 0 6
26 36 57 68 l58 58 65 -65 65 -65 -62 -62z m337 67 c0 -6 -27 -37 -60 -70
l-60 -60 -62 63 -63 62 65 65 64 65 58 -57 c32 -32 58 -62 58 -68z m-3155 55
l60 -60 -63 -62 -62 -63 -60 60 c-33 33 -60 64 -60 69 0 14 102 116 115 116 6
0 37 -27 70 -60z m-990 -140 l60 -60 -63 -63 -62 -62 -62 62 -63 63 60 60 c33
33 62 60 65 60 3 0 32 -27 65 -60z m288 2 l57 -58 -65 -64 -65 -65 -62 63 -63
62 60 60 c33 33 64 60 70 60 6 0 36 -26 68 -58z m1972 -2 l60 -60 -63 -62 -62
-63 -65 65 -65 64 57 58 c32 32 62 58 68 58 6 0 37 -27 70 -60z m1690 0 l60
-60 -63 -63 -62 -62 -62 62 -63 63 60 60 c33 33 62 60 65 60 3 0 32 -27 65
-60z m-4090 -140 l60 -60 -63 -63 -62 -62 -62 62 -63 63 60 60 c33 33 62 60
65 60 3 0 32 -27 65 -60z m280 0 l60 -60 -63 -63 -62 -62 -62 62 -63 63 60 60
c33 33 62 60 65 60 3 0 32 -27 65 -60z m290 0 l59 -60 -59 -60 c-33 -33 -64
-60 -70 -60 -6 0 -37 27 -70 60 l-59 60 59 60 c33 33 64 60 70 60 6 0 37 -27
70 -60z m3380 0 l60 -60 -63 -63 -62 -62 -62 62 -63 63 60 60 c33 33 62 60 65
60 3 0 32 -27 65 -60z m280 0 l60 -60 -63 -63 -62 -62 -62 62 -63 63 60 60
c33 33 62 60 65 60 3 0 32 -27 65 -60z m-4370 -140 l59 -60 -59 -60 c-33 -33
-63 -59 -66 -58 -4 2 -34 29 -67 60 l-60 58 61 60 c34 33 64 60 67 60 3 0 32
-27 65 -60z m280 0 l60 -60 -63 -63 -62 -62 -62 62 -63 63 60 60 c33 33 62 60
65 60 3 0 32 -27 65 -60z m282 -2 l63 -62 -57 -58 c-32 -32 -62 -58 -68 -58
-6 0 -37 27 -70 60 l-59 60 59 60 c33 33 62 60 64 60 3 0 34 -28 68 -62z
m3388 2 l59 -60 -59 -60 c-33 -33 -64 -60 -69 -60 -6 0 -36 26 -68 57 l-58 57
62 63 c34 35 65 63 68 63 3 0 32 -27 65 -60z m280 0 l60 -60 -63 -63 -62 -62
-62 62 -63 63 60 60 c33 33 62 60 65 60 3 0 32 -27 65 -60z m280 0 l60 -60
-63 -63 -62 -62 -62 62 -63 63 60 60 c33 33 62 60 65 60 3 0 32 -27 65 -60z
m-4370 -140 l60 -60 -63 -63 -62 -62 -62 62 -63 63 60 60 c33 33 62 60 65 60
3 0 32 -27 65 -60z m277 3 c32 -32 58 -62 58 -67 0 -14 -102 -116 -115 -116
-6 0 -37 27 -70 60 l-59 60 59 60 c33 33 62 60 64 60 3 0 31 -26 63 -57z m286
-6 c72 -73 70 -87 -14 -87 l-51 0 -7 -42 -7 -42 -57 57 -57 57 60 60 c33 33
62 60 65 60 3 0 34 -28 68 -63z m566 4 c80 -81 72 -91 -68 -91 -138 0 -143 7
-64 87 34 35 65 63 68 63 3 0 32 -27 64 -59z m2821 -1 l59 -60 -64 -65 -64
-65 -58 57 c-32 32 -58 62 -58 67 0 11 110 126 120 126 3 0 32 -27 65 -60z
m280 0 l60 -60 -63 -63 -62 -62 -62 62 -63 63 60 60 c33 33 62 60 65 60 3 0
32 -27 65 -60z m-4370 -140 l59 -60 -64 -65 -64 -65 -63 62 -63 62 62 63 c34
35 65 63 68 63 3 0 32 -27 65 -60z m277 3 c32 -32 58 -62 58 -68 0 -6 -26 -36
-58 -68 l-58 -57 -64 65 -64 65 59 60 c33 33 62 60 64 60 3 0 31 -26 63 -57z
m280 0 c32 -32 58 -62 58 -67 0 -14 -102 -116 -115 -116 -6 0 -37 27 -70 60
l-59 60 59 60 c33 33 62 60 64 60 3 0 31 -26 63 -57z m3393 -3 l59 -60 -64
-65 -64 -65 -58 57 c-32 32 -58 62 -58 67 0 11 110 126 120 126 3 0 32 -27 65
-60z m280 0 l59 -60 -64 -65 -64 -65 -58 57 c-32 32 -58 62 -58 67 0 11 110
126 120 126 3 0 32 -27 65 -60z m283 -3 l62 -63 -63 -62 -63 -62 -64 65 -64
65 59 60 c33 33 62 60 65 60 3 0 34 -28 68 -63z m-4376 -134 c32 -32 58 -62
58 -68 0 -6 -27 -37 -60 -70 l-60 -59 -60 59 c-33 33 -60 64 -60 69 0 10 110
126 119 126 3 0 31 -26 63 -57z m280 0 c32 -32 58 -62 58 -68 0 -6 -26 -36
-58 -68 l-58 -57 -64 65 -64 65 59 60 c33 33 62 60 64 60 3 0 31 -26 63 -57z
m3673 -3 l59 -60 -64 -65 -64 -65 -58 57 c-32 32 -58 62 -58 67 0 11 110 126
120 126 3 0 32 -27 65 -60z m277 3 c32 -32 58 -62 58 -68 0 -6 -27 -37 -60
-70 l-60 -59 -60 59 c-33 33 -60 64 -60 69 0 10 110 126 119 126 3 0 31 -26
63 -57z m-3749 -15 c-2 -29 -6 -73 -9 -97 l-6 -44 -44 44 -44 43 52 53 c29 29
53 53 54 53 0 0 -1 -24 -3 -52z m3199 -101 l-47 -48 -6 58 c-4 32 -7 78 -8
103 l-1 44 55 -54 55 -54 -48 -49z m-3820 -24 c32 -32 58 -62 58 -68 0 -6 -27
-37 -60 -70 l-60 -59 -65 64 -65 64 62 63 c34 35 65 63 67 63 3 0 31 -26 63
-57z m280 0 c32 -32 58 -62 58 -68 0 -6 -27 -37 -60 -70 l-60 -59 -60 59 c-33
33 -60 64 -60 69 0 10 110 126 119 126 3 0 31 -26 63 -57z m328 -66 c0 -10
-23 -43 -52 -73 l-52 -55 -63 63 -63 62 62 63 62 63 53 -52 c29 -29 53 -61 53
-71z m3338 -64 l-62 -63 -53 52 c-29 29 -53 61 -53 72 0 11 23 44 52 73 l52
53 63 -62 63 -62 -62 -63z m284 130 c32 -32 58 -62 58 -68 0 -6 -27 -37 -60
-70 l-60 -59 -60 59 c-33 33 -60 64 -60 69 0 10 110 126 119 126 3 0 31 -26
63 -57z m283 -133 l-65 -65 -62 63 -63 62 65 65 64 65 63 -62 63 -63 -65 -65z
m-4373 -7 c32 -32 58 -62 58 -68 0 -6 -27 -37 -60 -70 l-60 -59 -60 59 c-33
33 -60 64 -60 69 0 10 110 126 119 126 3 0 31 -26 63 -57z m338 -68 c0 -6 -27
-37 -60 -70 l-60 -60 -62 63 -63 62 65 65 64 65 58 -57 c32 -32 58 -62 58 -68z
m3613 -67 l-63 -63 -60 60 c-33 33 -60 64 -60 69 0 6 26 36 57 68 l58 58 65
-65 65 -65 -62 -62z m337 67 c0 -6 -27 -37 -60 -70 l-60 -60 -62 63 -63 62 65
65 64 65 58 -57 c32 -32 58 -62 58 -68z m-597 -37 c-20 -21 -37 -37 -38 -35
-1 1 -5 38 -9 82 l-6 79 45 -44 45 -44 -37 -38z m-3238 25 l-7 -55 -34 33 -34
33 37 39 c44 44 49 37 38 -50z m-593 -195 l-62 -63 -65 65 -65 64 62 63 63 63
65 -65 65 -65 -63 -62z m338 67 c0 -6 -27 -37 -60 -70 l-60 -60 -62 63 -63 62
65 65 64 65 58 -57 c32 -32 58 -62 58 -68z m4175 -65 l-65 -65 -62 63 -63 62
65 65 64 65 63 -62 63 -63 -65 -65z m-3962 142 c35 -36 37 -41 31 -84 -5 -36
-15 -55 -45 -84 l-39 -38 -62 62 -63 62 60 60 c33 33 64 60 70 60 6 0 28 -17
48 -38z m3402 -22 l60 -60 -63 -62 -62 -62 -45 44 c-38 38 -45 50 -45 84 0 33
7 47 37 78 20 21 42 38 48 38 6 0 37 -27 70 -60z m280 0 l60 -60 -63 -63 -62
-62 -62 62 -63 63 60 60 c33 33 62 60 65 60 3 0 32 -27 65 -60z m-4090 -140
l60 -60 -63 -63 -62 -62 -62 62 -63 63 60 60 c33 33 62 60 65 60 3 0 32 -27
65 -60z m282 8 c29 -29 53 -57 53 -63 0 -6 -27 -37 -60 -70 l-60 -60 -62 63
-63 62 60 60 c33 33 64 60 69 60 6 0 34 -23 63 -52z m3668 -8 l60 -60 -63 -63
-62 -62 -62 62 -63 63 60 60 c33 33 62 60 65 60 3 0 32 -27 65 -60z m280 0
l60 -60 -63 -63 -62 -62 -62 62 -63 63 60 60 c33 33 62 60 65 60 3 0 32 -27
65 -60z m-3802 -59 l-6 -53 -26 26 -25 26 29 30 c16 16 30 28 32 27 1 -2 0
-27 -4 -56z m3277 -26 c-13 -14 -27 -25 -32 -25 -4 0 -8 26 -8 57 l0 58 32
-32 32 -32 -24 -26z m-3845 -55 l59 -60 -59 -60 c-33 -33 -63 -59 -66 -58 -4
2 -34 29 -67 60 l-60 58 61 60 c34 33 64 60 67 60 3 0 32 -27 65 -60z m280 0
l60 -60 -63 -63 -62 -62 -62 62 -63 63 60 60 c33 33 62 60 65 60 3 0 32 -27
65 -60z m257 33 c25 -26 26 -33 21 -95 -5 -57 -10 -71 -35 -95 l-29 -27 -62
62 -62 62 60 60 c33 33 64 60 70 60 6 0 23 -12 37 -27z m3413 -33 l60 -60 -63
-62 -62 -63 -32 32 c-26 26 -32 41 -36 88 -4 53 -3 58 29 91 18 19 36 34 39
34 3 0 32 -27 65 -60z m280 0 l60 -60 -63 -63 -62 -62 -62 62 -63 63 60 60
c33 33 62 60 65 60 3 0 32 -27 65 -60z m280 0 l60 -60 -63 -63 -62 -62 -62 62
-63 63 60 60 c33 33 62 60 65 60 3 0 32 -27 65 -60z m-4370 -140 l60 -60 -63
-63 -62 -62 -62 62 -63 63 60 60 c33 33 62 60 65 60 3 0 32 -27 65 -60z m280
0 l60 -60 -63 -63 -62 -62 -62 62 -63 63 60 60 c33 33 62 60 65 60 3 0 32 -27
65 -60z m3670 0 l60 -60 -63 -63 -62 -62 -62 62 -63 63 60 60 c33 33 62 60 65
60 3 0 32 -27 65 -60z m280 0 l60 -60 -63 -63 -62 -62 -62 62 -63 63 60 60
c33 33 62 60 65 60 3 0 32 -27 65 -60z m-515 -74 c-20 -25 -30 -19 -30 21 l0
37 22 -21 c18 -18 19 -24 8 -37z m-3310 12 c0 -30 -1 -31 -17 -16 -13 14 -14
20 -3 32 18 22 20 20 20 -16z m-545 -78 l59 -60 -59 -60 c-33 -33 -64 -60 -69
-60 -6 0 -36 26 -68 57 l-58 57 62 63 c34 35 65 63 68 63 3 0 32 -27 65 -60z
m280 0 l60 -60 -63 -63 -62 -62 -62 62 -63 63 60 60 c33 33 62 60 65 60 3 0
32 -27 65 -60z m242 38 c18 -21 19 -30 12 -111 -4 -48 -11 -92 -14 -97 -12
-20 -32 -9 -90 50 l-59 60 59 60 c33 33 62 60 65 60 4 0 16 -10 27 -22z m3428
-38 l60 -60 -63 -63 c-81 -81 -93 -76 -106 47 -8 83 -7 88 14 112 13 13 26 24
30 24 3 0 32 -27 65 -60z m280 0 l60 -60 -63 -63 -62 -62 -62 62 -63 63 60 60
c33 33 62 60 65 60 3 0 32 -27 65 -60z m282 -2 l63 -62 -57 -58 c-32 -32 -62
-58 -68 -58 -6 0 -37 27 -70 60 l-59 60 59 60 c33 33 62 60 64 60 3 0 34 -28
68 -62z m-4372 -138 l59 -60 -64 -65 -64 -65 -58 57 c-32 32 -58 62 -58 67 0
11 110 126 120 126 3 0 32 -27 65 -60z m277 3 c32 -32 58 -62 58 -68 0 -6 -26
-36 -58 -68 l-58 -57 -64 65 -64 65 59 60 c33 33 62 60 64 60 3 0 31 -26 63
-57z m3673 -3 l59 -60 -64 -65 -64 -65 -58 57 c-32 32 -58 62 -58 67 0 11 110
126 120 126 3 0 32 -27 65 -60z m277 3 c32 -32 58 -62 58 -68 0 -6 -26 -36
-58 -68 l-58 -57 -64 65 -64 65 59 60 c33 33 62 60 64 60 3 0 31 -26 63 -57z
m-502 -63 c0 -5 -2 -10 -4 -10 -3 0 -8 5 -11 10 -3 6 -1 10 4 10 6 0 11 -4 11
-10z m-3588 -77 c32 -32 58 -62 58 -68 0 -6 -27 -37 -60 -70 l-60 -59 -60 59
c-33 33 -60 64 -60 69 0 10 110 126 119 126 3 0 31 -26 63 -57z m237 32 c2
-10 0 -66 -4 -123 l-7 -105 -66 67 -67 66 60 60 c60 61 77 68 84 35z m3436
-35 l59 -60 -64 -65 c-42 -43 -66 -61 -71 -52 -3 6 -9 56 -13 111 -6 93 0 126
23 126 4 0 33 -27 66 -60z m277 3 c32 -32 58 -62 58 -68 0 -6 -27 -37 -60 -70
l-60 -59 -60 59 c-33 33 -60 64 -60 69 0 10 110 126 119 126 3 0 31 -26 63
-57z m-4090 -140 c32 -32 58 -62 58 -68 0 -6 -27 -37 -60 -70 l-60 -59 -60 59
c-33 33 -60 64 -60 69 0 10 110 126 119 126 3 0 31 -26 63 -57z m286 -6 l62
-63 -65 -64 -65 -64 -60 59 c-33 33 -60 64 -60 69 0 11 110 126 120 126 3 0
34 -28 68 -63z m3664 6 c32 -32 58 -62 58 -68 0 -6 -27 -37 -60 -70 l-60 -59
-65 64 -65 64 62 63 c34 35 65 63 67 63 3 0 31 -26 63 -57z m280 0 c32 -32 58
-62 58 -68 0 -6 -27 -37 -60 -70 l-60 -59 -60 59 c-33 33 -60 64 -60 69 0 10
110 126 119 126 3 0 31 -26 63 -57z m-4090 -140 c32 -32 58 -62 58 -68 0 -6
-27 -37 -60 -70 l-60 -59 -60 59 c-33 33 -60 64 -60 69 0 10 110 126 119 126
3 0 31 -26 63 -57z m3678 -128 c-65 -65 -63 -68 -74 90 l-7 100 68 -67 68 -68
-55 -55z m272 128 c32 -32 58 -62 58 -68 0 -6 -27 -37 -60 -70 l-60 -59 -60
59 c-33 33 -60 64 -60 69 0 10 110 126 119 126 3 0 31 -26 63 -57z m-3737 -68
c-4 -58 -10 -105 -14 -105 -4 0 -29 23 -56 50 l-49 50 59 60 c32 33 61 58 63
55 3 -2 1 -52 -3 -110z m-15 -140 c0 -6 -27 -37 -60 -70 l-60 -60 -62 63 -63
62 65 65 64 65 58 -57 c32 -32 58 -62 58 -68z m3613 -67 l-63 -63 -60 60 c-33
33 -60 64 -60 69 0 6 26 36 57 68 l58 58 65 -65 65 -65 -62 -62z m-125 -124
l-46 -47 -6 59 c-4 32 -9 79 -11 104 l-5 45 57 -57 58 -58 -47 -46z m-3494 52
c-4 -47 -10 -86 -13 -86 -4 0 -25 18 -46 40 l-39 40 49 50 c27 27 50 48 52 46
2 -2 0 -42 -3 -90z"/>
</g>
</svg>
